<svg width="1423" height="623" viewBox="0 0 1423 623" fill="none" xmlns="http://www.w3.org/2000/svg">
<path d="M1.80375 43V41.488L7.85175 35.392C9.57975 33.664 10.4438 32.184 10.4438 30.952C10.4438 29.88 10.1078 29.048 9.43575 28.456C8.77975 27.848 7.98775 27.544 7.05975 27.544C5.33175 27.544 4.07575 28.336 3.29175 29.92L1.87575 29.08C2.40375 28.04 3.12375 27.256 4.03575 26.728C4.94775 26.184 5.95575 25.912 7.05975 25.912C8.40375 25.912 9.57975 26.368 10.5878 27.28C11.6118 28.176 12.1238 29.4 12.1238 30.952C12.1238 31.928 11.8518 32.864 11.3078 33.76C10.7638 34.656 9.99575 35.6 9.00375 36.592L4.20375 41.368H12.4838V43H1.80375ZM25.4588 40.936C24.3548 42.504 22.7948 43.288 20.7788 43.288C18.7628 43.288 17.1948 42.504 16.0748 40.936C14.9708 39.352 14.4188 37.24 14.4188 34.6C14.4188 31.96 14.9708 29.856 16.0748 28.288C17.1948 26.704 18.7628 25.912 20.7788 25.912C22.7948 25.912 24.3548 26.704 25.4588 28.288C26.5788 29.856 27.1388 31.96 27.1388 34.6C27.1388 37.24 26.5788 39.352 25.4588 40.936ZM17.3228 39.808C18.1548 41.04 19.3068 41.656 20.7788 41.656C22.2508 41.656 23.3948 41.04 24.2108 39.808C25.0428 38.576 25.4588 36.84 25.4588 34.6C25.4588 32.36 25.0428 30.624 24.2108 29.392C23.3948 28.16 22.2508 27.544 20.7788 27.544C19.3068 27.544 18.1548 28.16 17.3228 29.392C16.5068 30.624 16.0988 32.36 16.0988 34.6C16.0988 36.84 16.5068 38.576 17.3228 39.808ZM40.5759 40.936C39.4719 42.504 37.9119 43.288 35.8959 43.288C33.8799 43.288 32.3119 42.504 31.1919 40.936C30.0879 39.352 29.5359 37.24 29.5359 34.6C29.5359 31.96 30.0879 29.856 31.1919 28.288C32.3119 26.704 33.8799 25.912 35.8959 25.912C37.9119 25.912 39.4719 26.704 40.5759 28.288C41.6959 29.856 42.2559 31.96 42.2559 34.6C42.2559 37.24 41.6959 39.352 40.5759 40.936ZM32.4399 39.808C33.2719 41.04 34.4239 41.656 35.8959 41.656C37.3679 41.656 38.5119 41.04 39.3279 39.808C40.1599 38.576 40.5759 36.84 40.5759 34.6C40.5759 32.36 40.1599 30.624 39.3279 29.392C38.5119 28.16 37.3679 27.544 35.8959 27.544C34.4239 27.544 33.2719 28.16 32.4399 29.392C31.6239 30.624 31.2159 32.36 31.2159 34.6C31.2159 36.84 31.6239 38.576 32.4399 39.808ZM48.0964 33.112C47.0564 33.112 46.1844 32.768 45.4804 32.08C44.7764 31.376 44.4244 30.52 44.4244 29.512C44.4244 28.504 44.7764 27.656 45.4804 26.968C46.1844 26.264 47.0564 25.912 48.0964 25.912C49.1364 25.912 50.0084 26.264 50.7124 26.968C51.4164 27.656 51.7684 28.504 51.7684 29.512C51.7684 30.52 51.4244 31.376 50.7364 32.08C50.0484 32.768 49.1684 33.112 48.0964 33.112ZM46.5604 31.048C46.9604 31.464 47.4724 31.672 48.0964 31.672C48.7204 31.672 49.2324 31.464 49.6324 31.048C50.0324 30.632 50.2324 30.12 50.2324 29.512C50.2324 28.904 50.0324 28.392 49.6324 27.976C49.2324 27.56 48.7204 27.352 48.0964 27.352C47.4724 27.352 46.9604 27.56 46.5604 27.976C46.1604 28.392 45.9604 28.904 45.9604 29.512C45.9604 30.12 46.1604 30.632 46.5604 31.048ZM45.2644 40.72L56.5204 28.072L57.5524 28.648L46.2724 41.296L45.2644 40.72ZM57.5044 42.256C56.8004 42.944 55.9284 43.288 54.8884 43.288C53.8484 43.288 52.9764 42.944 52.2724 42.256C51.5684 41.552 51.2164 40.696 51.2164 39.688C51.2164 38.68 51.5684 37.832 52.2724 37.144C52.9764 36.44 53.8484 36.088 54.8884 36.088C55.9284 36.088 56.8004 36.44 57.5044 37.144C58.2084 37.832 58.5604 38.68 58.5604 39.688C58.5604 40.696 58.2084 41.552 57.5044 42.256ZM53.3524 41.224C53.7524 41.64 54.2644 41.848 54.8884 41.848C55.5124 41.848 56.0244 41.64 56.4244 41.224C56.8244 40.808 57.0244 40.296 57.0244 39.688C57.0244 39.08 56.8244 38.568 56.4244 38.152C56.0244 37.736 55.5124 37.528 54.8884 37.528C54.2644 37.528 53.7524 37.736 53.3524 38.152C52.9524 38.568 52.7524 39.08 52.7524 39.688C52.7524 40.296 52.9524 40.808 53.3524 41.224Z" fill="#004AF5"/>
<line x1="84" y1="34.75" x2="1423" y2="34.75" stroke="#004AF5" stroke-width="0.5"/>
<path d="M12.2531 170.2H13.6931V187H12.0131V172.048L8.24512 173.176L7.81313 171.736L12.2531 170.2ZM21.9694 176.968C23.5374 176.968 24.8654 177.432 25.9534 178.36C27.0574 179.272 27.6094 180.528 27.6094 182.128C27.6094 183.728 27.0574 184.992 25.9534 185.92C24.8654 186.832 23.5374 187.288 21.9694 187.288C20.7054 187.288 19.5774 186.984 18.5854 186.376C17.5934 185.752 16.9214 184.864 16.5694 183.712L17.9854 182.896C18.2254 183.792 18.6974 184.48 19.4014 184.96C20.1214 185.424 20.9774 185.656 21.9694 185.656C23.1214 185.656 24.0654 185.352 24.8014 184.744C25.5534 184.12 25.9294 183.248 25.9294 182.128C25.9294 181.008 25.5534 180.144 24.8014 179.536C24.0654 178.912 23.1214 178.6 21.9694 178.6H17.4094L18.0094 170.2H27.0094V171.784H19.4974L19.1374 176.968H21.9694ZM40.5759 184.936C39.4719 186.504 37.9119 187.288 35.8959 187.288C33.8799 187.288 32.3119 186.504 31.1919 184.936C30.0879 183.352 29.5359 181.24 29.5359 178.6C29.5359 175.96 30.0879 173.856 31.1919 172.288C32.3119 170.704 33.8799 169.912 35.8959 169.912C37.9119 169.912 39.4719 170.704 40.5759 172.288C41.6959 173.856 42.2559 175.96 42.2559 178.6C42.2559 181.24 41.6959 183.352 40.5759 184.936ZM32.4399 183.808C33.2719 185.04 34.4239 185.656 35.8959 185.656C37.3679 185.656 38.5119 185.04 39.3279 183.808C40.1599 182.576 40.5759 180.84 40.5759 178.6C40.5759 176.36 40.1599 174.624 39.3279 173.392C38.5119 172.16 37.3679 171.544 35.8959 171.544C34.4239 171.544 33.2719 172.16 32.4399 173.392C31.6239 174.624 31.2159 176.36 31.2159 178.6C31.2159 180.84 31.6239 182.576 32.4399 183.808ZM48.0964 177.112C47.0564 177.112 46.1844 176.768 45.4804 176.08C44.7764 175.376 44.4244 174.52 44.4244 173.512C44.4244 172.504 44.7764 171.656 45.4804 170.968C46.1844 170.264 47.0564 169.912 48.0964 169.912C49.1364 169.912 50.0084 170.264 50.7124 170.968C51.4164 171.656 51.7684 172.504 51.7684 173.512C51.7684 174.52 51.4244 175.376 50.7364 176.08C50.0484 176.768 49.1684 177.112 48.0964 177.112ZM46.5604 175.048C46.9604 175.464 47.4724 175.672 48.0964 175.672C48.7204 175.672 49.2324 175.464 49.6324 175.048C50.0324 174.632 50.2324 174.12 50.2324 173.512C50.2324 172.904 50.0324 172.392 49.6324 171.976C49.2324 171.56 48.7204 171.352 48.0964 171.352C47.4724 171.352 46.9604 171.56 46.5604 171.976C46.1604 172.392 45.9604 172.904 45.9604 173.512C45.9604 174.12 46.1604 174.632 46.5604 175.048ZM45.2644 184.72L56.5204 172.072L57.5524 172.648L46.2724 185.296L45.2644 184.72ZM57.5044 186.256C56.8004 186.944 55.9284 187.288 54.8884 187.288C53.8484 187.288 52.9764 186.944 52.2724 186.256C51.5684 185.552 51.2164 184.696 51.2164 183.688C51.2164 182.68 51.5684 181.832 52.2724 181.144C52.9764 180.44 53.8484 180.088 54.8884 180.088C55.9284 180.088 56.8004 180.44 57.5044 181.144C58.2084 181.832 58.5604 182.68 58.5604 183.688C58.5604 184.696 58.2084 185.552 57.5044 186.256ZM53.3524 185.224C53.7524 185.64 54.2644 185.848 54.8884 185.848C55.5124 185.848 56.0244 185.64 56.4244 185.224C56.8244 184.808 57.0244 184.296 57.0244 183.688C57.0244 183.08 56.8244 182.568 56.4244 182.152C56.0244 181.736 55.5124 181.528 54.8884 181.528C54.2644 181.528 53.7524 181.736 53.3524 182.152C52.9524 182.568 52.7524 183.08 52.7524 183.688C52.7524 184.296 52.9524 184.808 53.3524 185.224Z" fill="#004AF5"/>
<line x1="84" y1="178.75" x2="1423" y2="178.75" stroke="#004AF5" stroke-width="0.5"/>
<path d="M9.8625 314.2H11.3025V331H9.6225V316.048L5.8545 317.176L5.4225 315.736L9.8625 314.2ZM25.4588 328.936C24.3548 330.504 22.7948 331.288 20.7788 331.288C18.7628 331.288 17.1948 330.504 16.0748 328.936C14.9708 327.352 14.4188 325.24 14.4188 322.6C14.4188 319.96 14.9708 317.856 16.0748 316.288C17.1948 314.704 18.7628 313.912 20.7788 313.912C22.7948 313.912 24.3548 314.704 25.4588 316.288C26.5788 317.856 27.1388 319.96 27.1388 322.6C27.1388 325.24 26.5788 327.352 25.4588 328.936ZM17.3228 327.808C18.1548 329.04 19.3068 329.656 20.7788 329.656C22.2508 329.656 23.3948 329.04 24.2108 327.808C25.0428 326.576 25.4588 324.84 25.4588 322.6C25.4588 320.36 25.0428 318.624 24.2108 317.392C23.3948 316.16 22.2508 315.544 20.7788 315.544C19.3068 315.544 18.1548 316.16 17.3228 317.392C16.5068 318.624 16.0988 320.36 16.0988 322.6C16.0988 324.84 16.5068 326.576 17.3228 327.808ZM40.5759 328.936C39.4719 330.504 37.9119 331.288 35.8959 331.288C33.8799 331.288 32.3119 330.504 31.1919 328.936C30.0879 327.352 29.5359 325.24 29.5359 322.6C29.5359 319.96 30.0879 317.856 31.1919 316.288C32.3119 314.704 33.8799 313.912 35.8959 313.912C37.9119 313.912 39.4719 314.704 40.5759 316.288C41.6959 317.856 42.2559 319.96 42.2559 322.6C42.2559 325.24 41.6959 327.352 40.5759 328.936ZM32.4399 327.808C33.2719 329.04 34.4239 329.656 35.8959 329.656C37.3679 329.656 38.5119 329.04 39.3279 327.808C40.1599 326.576 40.5759 324.84 40.5759 322.6C40.5759 320.36 40.1599 318.624 39.3279 317.392C38.5119 316.16 37.3679 315.544 35.8959 315.544C34.4239 315.544 33.2719 316.16 32.4399 317.392C31.6239 318.624 31.2159 320.36 31.2159 322.6C31.2159 324.84 31.6239 326.576 32.4399 327.808ZM48.0964 321.112C47.0564 321.112 46.1844 320.768 45.4804 320.08C44.7764 319.376 44.4244 318.52 44.4244 317.512C44.4244 316.504 44.7764 315.656 45.4804 314.968C46.1844 314.264 47.0564 313.912 48.0964 313.912C49.1364 313.912 50.0084 314.264 50.7124 314.968C51.4164 315.656 51.7684 316.504 51.7684 317.512C51.7684 318.52 51.4244 319.376 50.7364 320.08C50.0484 320.768 49.1684 321.112 48.0964 321.112ZM46.5604 319.048C46.9604 319.464 47.4724 319.672 48.0964 319.672C48.7204 319.672 49.2324 319.464 49.6324 319.048C50.0324 318.632 50.2324 318.12 50.2324 317.512C50.2324 316.904 50.0324 316.392 49.6324 315.976C49.2324 315.56 48.7204 315.352 48.0964 315.352C47.4724 315.352 46.9604 315.56 46.5604 315.976C46.1604 316.392 45.9604 316.904 45.9604 317.512C45.9604 318.12 46.1604 318.632 46.5604 319.048ZM45.2644 328.72L56.5204 316.072L57.5524 316.648L46.2724 329.296L45.2644 328.72ZM57.5044 330.256C56.8004 330.944 55.9284 331.288 54.8884 331.288C53.8484 331.288 52.9764 330.944 52.2724 330.256C51.5684 329.552 51.2164 328.696 51.2164 327.688C51.2164 326.68 51.5684 325.832 52.2724 325.144C52.9764 324.44 53.8484 324.088 54.8884 324.088C55.9284 324.088 56.8004 324.44 57.5044 325.144C58.2084 325.832 58.5604 326.68 58.5604 327.688C58.5604 328.696 58.2084 329.552 57.5044 330.256ZM53.3524 329.224C53.7524 329.64 54.2644 329.848 54.8884 329.848C55.5124 329.848 56.0244 329.64 56.4244 329.224C56.8244 328.808 57.0244 328.296 57.0244 327.688C57.0244 327.08 56.8244 326.568 56.4244 326.152C56.0244 325.736 55.5124 325.528 54.8884 325.528C54.2644 325.528 53.7524 325.736 53.3524 326.152C52.9524 326.568 52.7524 327.08 52.7524 327.688C52.7524 328.296 52.9524 328.808 53.3524 329.224Z" fill="#004AF5"/>
<line x1="84" y1="322.75" x2="1423" y2="322.75" stroke="#004AF5" stroke-width="0.5"/>
<path d="M21.9694 464.968C23.5374 464.968 24.8654 465.432 25.9534 466.36C27.0574 467.272 27.6094 468.528 27.6094 470.128C27.6094 471.728 27.0574 472.992 25.9534 473.92C24.8654 474.832 23.5374 475.288 21.9694 475.288C20.7054 475.288 19.5774 474.984 18.5854 474.376C17.5934 473.752 16.9214 472.864 16.5694 471.712L17.9854 470.896C18.2254 471.792 18.6974 472.48 19.4014 472.96C20.1214 473.424 20.9774 473.656 21.9694 473.656C23.1214 473.656 24.0654 473.352 24.8014 472.744C25.5534 472.12 25.9294 471.248 25.9294 470.128C25.9294 469.008 25.5534 468.144 24.8014 467.536C24.0654 466.912 23.1214 466.6 21.9694 466.6H17.4094L18.0094 458.2H27.0094V459.784H19.4974L19.1374 464.968H21.9694ZM40.5759 472.936C39.4719 474.504 37.9119 475.288 35.8959 475.288C33.8799 475.288 32.3119 474.504 31.1919 472.936C30.0879 471.352 29.5359 469.24 29.5359 466.6C29.5359 463.96 30.0879 461.856 31.1919 460.288C32.3119 458.704 33.8799 457.912 35.8959 457.912C37.9119 457.912 39.4719 458.704 40.5759 460.288C41.6959 461.856 42.2559 463.96 42.2559 466.6C42.2559 469.24 41.6959 471.352 40.5759 472.936ZM32.4399 471.808C33.2719 473.04 34.4239 473.656 35.8959 473.656C37.3679 473.656 38.5119 473.04 39.3279 471.808C40.1599 470.576 40.5759 468.84 40.5759 466.6C40.5759 464.36 40.1599 462.624 39.3279 461.392C38.5119 460.16 37.3679 459.544 35.8959 459.544C34.4239 459.544 33.2719 460.16 32.4399 461.392C31.6239 462.624 31.2159 464.36 31.2159 466.6C31.2159 468.84 31.6239 470.576 32.4399 471.808ZM48.0964 465.112C47.0564 465.112 46.1844 464.768 45.4804 464.08C44.7764 463.376 44.4244 462.52 44.4244 461.512C44.4244 460.504 44.7764 459.656 45.4804 458.968C46.1844 458.264 47.0564 457.912 48.0964 457.912C49.1364 457.912 50.0084 458.264 50.7124 458.968C51.4164 459.656 51.7684 460.504 51.7684 461.512C51.7684 462.52 51.4244 463.376 50.7364 464.08C50.0484 464.768 49.1684 465.112 48.0964 465.112ZM46.5604 463.048C46.9604 463.464 47.4724 463.672 48.0964 463.672C48.7204 463.672 49.2324 463.464 49.6324 463.048C50.0324 462.632 50.2324 462.12 50.2324 461.512C50.2324 460.904 50.0324 460.392 49.6324 459.976C49.2324 459.56 48.7204 459.352 48.0964 459.352C47.4724 459.352 46.9604 459.56 46.5604 459.976C46.1604 460.392 45.9604 460.904 45.9604 461.512C45.9604 462.12 46.1604 462.632 46.5604 463.048ZM45.2644 472.72L56.5204 460.072L57.5524 460.648L46.2724 473.296L45.2644 472.72ZM57.5044 474.256C56.8004 474.944 55.9284 475.288 54.8884 475.288C53.8484 475.288 52.9764 474.944 52.2724 474.256C51.5684 473.552 51.2164 472.696 51.2164 471.688C51.2164 470.68 51.5684 469.832 52.2724 469.144C52.9764 468.44 53.8484 468.088 54.8884 468.088C55.9284 468.088 56.8004 468.44 57.5044 469.144C58.2084 469.832 58.5604 470.68 58.5604 471.688C58.5604 472.696 58.2084 473.552 57.5044 474.256ZM53.3524 473.224C53.7524 473.64 54.2644 473.848 54.8884 473.848C55.5124 473.848 56.0244 473.64 56.4244 473.224C56.8244 472.808 57.0244 472.296 57.0244 471.688C57.0244 471.08 56.8244 470.568 56.4244 470.152C56.0244 469.736 55.5124 469.528 54.8884 469.528C54.2644 469.528 53.7524 469.736 53.3524 470.152C52.9524 470.568 52.7524 471.08 52.7524 471.688C52.7524 472.296 52.9524 472.808 53.3524 473.224Z" fill="#004AF5"/>
<line x1="84" y1="466.75" x2="1423" y2="466.75" stroke="#004AF5" stroke-width="0.5"/>
<path d="M40.5759 616.936C39.4719 618.504 37.9119 619.288 35.8959 619.288C33.8799 619.288 32.3119 618.504 31.1919 616.936C30.0879 615.352 29.5359 613.24 29.5359 610.6C29.5359 607.96 30.0879 605.856 31.1919 604.288C32.3119 602.704 33.8799 601.912 35.8959 601.912C37.9119 601.912 39.4719 602.704 40.5759 604.288C41.6959 605.856 42.2559 607.96 42.2559 610.6C42.2559 613.24 41.6959 615.352 40.5759 616.936ZM32.4399 615.808C33.2719 617.04 34.4239 617.656 35.8959 617.656C37.3679 617.656 38.5119 617.04 39.3279 615.808C40.1599 614.576 40.5759 612.84 40.5759 610.6C40.5759 608.36 40.1599 606.624 39.3279 605.392C38.5119 604.16 37.3679 603.544 35.8959 603.544C34.4239 603.544 33.2719 604.16 32.4399 605.392C31.6239 606.624 31.2159 608.36 31.2159 610.6C31.2159 612.84 31.6239 614.576 32.4399 615.808ZM48.0964 609.112C47.0564 609.112 46.1844 608.768 45.4804 608.08C44.7764 607.376 44.4244 606.52 44.4244 605.512C44.4244 604.504 44.7764 603.656 45.4804 602.968C46.1844 602.264 47.0564 601.912 48.0964 601.912C49.1364 601.912 50.0084 602.264 50.7124 602.968C51.4164 603.656 51.7684 604.504 51.7684 605.512C51.7684 606.52 51.4244 607.376 50.7364 608.08C50.0484 608.768 49.1684 609.112 48.0964 609.112ZM46.5604 607.048C46.9604 607.464 47.4724 607.672 48.0964 607.672C48.7204 607.672 49.2324 607.464 49.6324 607.048C50.0324 606.632 50.2324 606.12 50.2324 605.512C50.2324 604.904 50.0324 604.392 49.6324 603.976C49.2324 603.56 48.7204 603.352 48.0964 603.352C47.4724 603.352 46.9604 603.56 46.5604 603.976C46.1604 604.392 45.9604 604.904 45.9604 605.512C45.9604 606.12 46.1604 606.632 46.5604 607.048ZM45.2644 616.72L56.5204 604.072L57.5524 604.648L46.2724 617.296L45.2644 616.72ZM57.5044 618.256C56.8004 618.944 55.9284 619.288 54.8884 619.288C53.8484 619.288 52.9764 618.944 52.2724 618.256C51.5684 617.552 51.2164 616.696 51.2164 615.688C51.2164 614.68 51.5684 613.832 52.2724 613.144C52.9764 612.44 53.8484 612.088 54.8884 612.088C55.9284 612.088 56.8004 612.44 57.5044 613.144C58.2084 613.832 58.5604 614.68 58.5604 615.688C58.5604 616.696 58.2084 617.552 57.5044 618.256ZM53.3524 617.224C53.7524 617.64 54.2644 617.848 54.8884 617.848C55.5124 617.848 56.0244 617.64 56.4244 617.224C56.8244 616.808 57.0244 616.296 57.0244 615.688C57.0244 615.08 56.8244 614.568 56.4244 614.152C56.0244 613.736 55.5124 613.528 54.8884 613.528C54.2644 613.528 53.7524 613.736 53.3524 614.152C52.9524 614.568 52.7524 615.08 52.7524 615.688C52.7524 616.296 52.9524 616.808 53.3524 617.224Z" fill="#004AF5"/>
<line x1="84" y1="610.75" x2="1423" y2="610.75" stroke="#004AF5" stroke-width="0.5"/>
</svg>
